<svg xmlns="http://www.w3.org/2000/svg" height="480" width="640" viewBox="0 0 218 40"><g fill="none"><path d="M182.527 30.707v-6.254c.016-.297.16-.574.393-.76l11.573-7.473a.46.46 0 0 0 .187-.333v-2.494a.76.76 0 0 0-.76-.76h-11.24a.14.14 0 0 1-.153-.146V8.993a.147.147 0 0 1 .153-.153h11.513c.304.014.593.132.82.333l3.127 3.127c.201.227.319.517.333.82v4.313c-.016.298-.16.575-.393.76L186.507 25.7a.453.453 0 0 0-.18.333v.88a.147.147 0 0 0 .146.154h11.847a.14.14 0 0 1 .153.146v3.494a.147.147 0 0 1-.153.153h-15.64a.147.147 0 0 1-.153-.153zm29.613 0v-6.194c0-.273-.153-.333-.333-.153l-1.06 1.067a.4.4 0 0 1-.274.12h-8.813a.147.147 0 0 1-.153-.154v-6.226a2.26 2.26 0 0 1 .52-1.334l8.566-8.9a.267.267 0 0 1 .24-.12h4.954a.147.147 0 0 1 .153.154V21.6a.14.14 0 0 0 .147.147h1.22a.14.14 0 0 1 .146.153v3.493a.14.14 0 0 1-.146.154h-1.247a.14.14 0 0 0-.147.153v5.007a.147.147 0 0 1-.153.153h-3.493a.147.147 0 0 1-.127-.153zm-6.667-8.96H212a.14.14 0 0 0 .153-.147v-8.48c0-.273-.153-.333-.333-.12l-6.167 6.407a1.513 1.513 0 0 0-.333.853v1.333a.14.14 0 0 0 .14.154h.013zM34.667 0H5.333L0 5.333v29.334L5.333 40h29.334L40 34.667V5.333z" fill="#FF0046"></path><path d="M30.607 9.393A15 15 0 1 0 35 20a14.9 14.9 0 0 0-4.393-10.607zm.606 4.16a12.893 12.893 0 0 1 1.654 5.174l-2.774-1.56 1.12-3.614zm-2.073-2.7c.196.2.382.4.56.6l-1.64 5.374-2 .6-4.993-3.634v-2.04L25.82 8.42a12.9 12.9 0 0 1 3.32 2.433zM20 7.067a13 13 0 0 1 3.46.466L20 9.953l-3.467-2.42A13.02 13.02 0 0 1 20 7.067zm-9.147 3.786a12.9 12.9 0 0 1 3.334-2.42l4.753 3.334v2.04l-5 3.633-2-.6-1.673-5.373.586-.614zm-2.073 2.7 1.12 3.614-2.773 1.56a12.893 12.893 0 0 1 1.653-5.174zm2.073 15.594a8.027 8.027 0 0 1-.326-.347h3.033l.987 2.933a12.933 12.933 0 0 1-3.694-2.586zm3.027-2.414H8.953a12.767 12.767 0 0 1-1.84-5.626l4.147-2.334 2.127.667 1.92 5.893-1.427 1.4zm9.1 5.854a13.013 13.013 0 0 1-5.967 0l-1.52-4.54L17.14 26.4h5.713l1.647 1.647-1.52 4.54zm-.1-8.187h-5.767l-1.786-5.493 4.666-3.394 4.667 3.394-1.78 5.493zm6.26 4.747a12.933 12.933 0 0 1-3.693 2.586l.986-2.933h3.034c-.074.12-.214.233-.327.347zm-3.027-2.414-1.386-1.4 1.913-5.893 2.127-.667 4.146 2.334a12.767 12.767 0 0 1-1.84 5.626h-4.96z" fill="#FFF"></path></g></svg>